<svg xmlns="http://www.w3.org/2000/svg" viewBox="0 0 80 80" width="80" height="80"><defs><clipPath id="c"><circle cx="40" cy="40" r="40"/></clipPath></defs><g clip-path="url(#c)"><rect width="80" height="80" fill="#3a4868"/><rect x="31" y="62" width="18" height="20" fill="#e8bf9c"/><ellipse cx="17" cy="44" rx="4" ry="5.5" fill="#e8bf9c"/><ellipse cx="63" cy="44" rx="4" ry="5.5" fill="#e8bf9c"/><path d="M18 36 Q18 16 40 16 Q62 16 62 36 L62 50 Q60 64 48 68 L32 68 Q20 64 18 50 Z" fill="#e8bf9c"/><path d="M18 34 Q19 15 40 14 Q61 15 62 34 Q57 23 47 22 Q40 20 33 22 Q23 23 18 34 Z" fill="#e4e2dc"/><path d="M25 33 L35 32" stroke="#c9c7c0" stroke-width="3.0" stroke-linecap="round"/><path d="M45 32 L55 33" stroke="#c9c7c0" stroke-width="3.0" stroke-linecap="round"/><ellipse cx="30.5" cy="40" rx="2.6" ry="3" fill="#2a2230"/><ellipse cx="49.5" cy="40" rx="2.6" ry="3" fill="#2a2230"/><circle cx="31.3" cy="39" r=".9" fill="#fff"/><circle cx="50.3" cy="39" r=".9" fill="#fff"/><g fill="none" stroke="#b07e62" stroke-width="1.1" stroke-linecap="round" opacity=".8"><path d="M31 25 Q40 23 49 25"/><path d="M33 28 Q40 26.5 47 28"/><path d="M22.5 41.5 L20.5 43"/><path d="M57.5 41.5 L59.5 43"/><path d="M30 55 Q28 52.5 29 50"/><path d="M50 55 Q52 52.5 51 50"/></g><path d="M40 44 Q38.5 49 41 50" fill="none" stroke="#c48a6a" stroke-width="1.4" stroke-linecap="round"/><path d="M35 57 Q40 59 45 57" fill="none" stroke="#2a2230" stroke-width="2" stroke-linecap="round"/></g></svg>
