<svg xmlns="http://www.w3.org/2000/svg" viewBox="0 0 80 80" width="80" height="80"><defs><clipPath id="c"><circle cx="40" cy="40" r="40"/></clipPath></defs><g clip-path="url(#c)"><rect width="80" height="80" fill="#d79418"/><rect x="31" y="62" width="18" height="20" fill="#e9b98f"/><ellipse cx="17" cy="44" rx="4" ry="5.5" fill="#e9b98f"/><ellipse cx="63" cy="44" rx="4" ry="5.5" fill="#e9b98f"/><path d="M18 36 Q18 16 40 16 Q62 16 62 36 L62 50 Q60 64 48 68 L32 68 Q20 64 18 50 Z" fill="#e9b98f"/><path d="M18 32 L16 16 L25 22 L26 6 L34 18 L40 3 L46 18 L54 6 L55 22 L64 16 L62 32 Q54 22 40 22 Q26 22 18 32 Z" fill="#2a1c15"/><path d="M25 33 L35 32" stroke="#2a1c15" stroke-width="3.0" stroke-linecap="round"/><path d="M45 32 L55 33" stroke="#2a1c15" stroke-width="3.0" stroke-linecap="round"/><ellipse cx="30.5" cy="40" rx="2.6" ry="3" fill="#2a2230"/><ellipse cx="49.5" cy="40" rx="2.6" ry="3" fill="#2a2230"/><circle cx="31.3" cy="39" r=".9" fill="#fff"/><circle cx="50.3" cy="39" r=".9" fill="#fff"/><path d="M40 44 Q38.5 49 41 50" fill="none" stroke="#c48a6a" stroke-width="1.4" stroke-linecap="round"/><path d="M33 55 Q40 64 47 55 Z" fill="#8c2f3a"/><path d="M34.6 55.6 L45.4 55.6" stroke="#fff" stroke-width="1.6"/></g></svg>
